<svg width="256" height="256" fill="none" xmlns="http://www.w3.org/2000/svg"><path fill="#000" d="M0 0h256v256H0z"/><path d="M46.685 90h13.724l25.587 77h-13.92l-6.47-19.196H41.292L34.921 167H21l25.685-77Zm16.47 47.285-9.608-31.777-10 31.777h19.608ZM100.885 90l17.254 28.414L135.295 90H150l-24.116 39.042L149.216 167h-14.705l-16.372-27.33-16.47 27.33H86.866l23.332-37.958L86.082 90h14.803Z" fill="#fff"/><path d="M156 167V90h13.511v77H156ZM236 103.123h-22.224V167h-13.413v-63.877h-22.224V90H236v13.123Z" fill="#EC7979"/></svg>